<svg width="30" height="31" viewBox="0 0 30 31" fill="none" xmlns="http://www.w3.org/2000/svg">
<path d="M15 3.5C10.0295 3.5 6.00004 7.52944 6.00004 12.5V17.8787L4.93938 18.9393C4.51039 19.3683 4.38205 20.0135 4.61422 20.574C4.8464 21.1345 5.39335 21.5 6.00004 21.5H24C24.6067 21.5 25.1537 21.1345 25.3859 20.574C25.618 20.0135 25.4897 19.3683 25.0607 18.9393L24 17.8787V12.5C24 7.52944 19.9706 3.5 15 3.5Z" fill="#999999"/>
<path d="M15 27.5C12.5147 27.5 10.5 25.4853 10.5 23H19.5C19.5 25.4853 17.4853 27.5 15 27.5Z" fill="#999999"/>
</svg>
