<svg width="21" height="21" viewBox="0 0 21 21" fill="none" xmlns="http://www.w3.org/2000/svg">
<g clip-path="url(#clip0_793_2972)">
<path d="M17.7861 4.57278H14.7743V0.909326C14.7743 0.505369 14.4465 0.176636 14.0416 0.176636H8.04867C7.8655 0.176636 7.68916 0.245997 7.55386 0.369577L2.71908 4.796C2.56766 4.93521 2.4812 5.13206 2.4812 5.33624V15.0478C2.4812 15.4513 2.80896 15.7805 3.21389 15.7805H6.22574V19.4439C6.22574 19.8474 6.55349 20.1766 6.95843 20.1766H17.7856C18.1906 20.1766 18.5183 19.8474 18.5183 19.4439V5.30547C18.5188 4.90151 18.1906 4.57278 17.7861 4.57278ZM7.49378 2.41183V5.13451H4.51954L7.49378 2.41183ZM3.94707 14.3151V6.59989H8.22647C8.6314 6.59989 8.95916 6.27164 8.95916 5.8672V1.64202H13.3089V4.57278H11.7927C11.6095 4.57278 11.4337 4.64263 11.2979 4.76621L6.46362 9.19312C6.31219 9.33135 6.22574 9.52869 6.22574 9.73287V14.3151H3.94707ZM11.2383 6.80797V9.52967H8.26554L11.2383 6.80797ZM17.0534 18.7113H7.6916V10.9951H11.9715C12.3759 10.9951 12.7042 10.6668 12.7042 10.2624V6.03816H17.0534V18.7113Z" fill="#999999"/>
</g>
<defs>
<clipPath id="clip0_793_2972">
<rect width="20" height="20" fill="white" transform="translate(0.5 0.176636)"/>
</clipPath>
</defs>
</svg>
