<svg width="21" height="21" viewBox="0 0 21 21" fill="none" xmlns="http://www.w3.org/2000/svg">
<path fill-rule="evenodd" clip-rule="evenodd" d="M3.5 4.17664C3.5 3.62435 3.94772 3.17664 4.5 3.17664H7.5C8.05228 3.17664 8.5 3.62435 8.5 4.17664V7.17664C8.5 7.72892 8.05228 8.17664 7.5 8.17664H4.5C3.94772 8.17664 3.5 7.72892 3.5 7.17664V4.17664ZM5.5 6.17664V5.17664H6.5V6.17664H5.5Z" fill="white"/>
<path fill-rule="evenodd" clip-rule="evenodd" d="M3.5 13.1766C3.5 12.6244 3.94772 12.1766 4.5 12.1766H7.5C8.05228 12.1766 8.5 12.6244 8.5 13.1766V16.1766C8.5 16.7289 8.05228 17.1766 7.5 17.1766H4.5C3.94772 17.1766 3.5 16.7289 3.5 16.1766V13.1766ZM5.5 15.1766V14.1766H6.5V15.1766H5.5Z" fill="white"/>
<path fill-rule="evenodd" clip-rule="evenodd" d="M13.5 3.17664C12.9477 3.17664 12.5 3.62435 12.5 4.17664V7.17664C12.5 7.72892 12.9477 8.17664 13.5 8.17664H16.5C17.0523 8.17664 17.5 7.72892 17.5 7.17664V4.17664C17.5 3.62435 17.0523 3.17664 16.5 3.17664H13.5ZM14.5 5.17664V6.17664H15.5V5.17664H14.5Z" fill="white"/>
<path d="M11.5 4.17664C11.5 3.62435 11.0523 3.17664 10.5 3.17664C9.94772 3.17664 9.5 3.62435 9.5 4.17664V5.17664C9.5 5.72892 9.94772 6.17664 10.5 6.17664C11.0523 6.17664 11.5 5.72892 11.5 5.17664V4.17664Z" fill="white"/>
<path d="M10.5 7.17664C11.0523 7.17664 11.5 7.62435 11.5 8.17664V9.17664H13.5C14.0523 9.17664 14.5 9.62435 14.5 10.1766C14.5 10.7289 14.0523 11.1766 13.5 11.1766H10.5C9.94772 11.1766 9.5 10.7289 9.5 10.1766V8.17664C9.5 7.62435 9.94772 7.17664 10.5 7.17664Z" fill="white"/>
<path d="M16.5 9.17664C15.9477 9.17664 15.5 9.62435 15.5 10.1766C15.5 10.7289 15.9477 11.1766 16.5 11.1766C17.0523 11.1766 17.5 10.7289 17.5 10.1766C17.5 9.62435 17.0523 9.17664 16.5 9.17664Z" fill="white"/>
<path d="M9.5 13.1766C9.5 12.6244 9.94772 12.1766 10.5 12.1766H11.5C12.0523 12.1766 12.5 12.6244 12.5 13.1766C12.5 13.7289 12.0523 14.1766 11.5 14.1766V16.1766C11.5 16.7289 11.0523 17.1766 10.5 17.1766C9.94772 17.1766 9.5 16.7289 9.5 16.1766V13.1766Z" fill="white"/>
<path d="M7.5 11.1766C8.05228 11.1766 8.5 10.7289 8.5 10.1766C8.5 9.62435 8.05228 9.17664 7.5 9.17664H4.5C3.94772 9.17664 3.5 9.62435 3.5 10.1766C3.5 10.7289 3.94772 11.1766 4.5 11.1766H7.5Z" fill="white"/>
<path d="M17.5 13.1766C17.5 13.7289 17.0523 14.1766 16.5 14.1766H14.5C13.9477 14.1766 13.5 13.7289 13.5 13.1766C13.5 12.6244 13.9477 12.1766 14.5 12.1766H16.5C17.0523 12.1766 17.5 12.6244 17.5 13.1766Z" fill="white"/>
<path d="M16.5 17.1766C17.0523 17.1766 17.5 16.7289 17.5 16.1766C17.5 15.6244 17.0523 15.1766 16.5 15.1766H13.5C12.9477 15.1766 12.5 15.6244 12.5 16.1766C12.5 16.7289 12.9477 17.1766 13.5 17.1766H16.5Z" fill="white"/>
</svg>
