<svg width="24" height="25" viewBox="0 0 24 25" fill="none" xmlns="http://www.w3.org/2000/svg">
<path d="M11.29 15.9666C11.247 16.0142 11.2069 16.0642 11.17 16.1166C11.1322 16.1724 11.1019 16.2329 11.08 16.2966C11.0512 16.3533 11.031 16.414 11.02 16.4766C11.0151 16.5432 11.0151 16.6101 11.02 16.6766C11.0166 16.8078 11.044 16.938 11.1 17.0566C11.1449 17.1807 11.2166 17.2934 11.3099 17.3868C11.4032 17.4801 11.5159 17.5517 11.64 17.5966C11.7597 17.6495 11.8891 17.6769 12.02 17.6769C12.1509 17.6769 12.2803 17.6495 12.4 17.5966C12.5241 17.5517 12.6368 17.4801 12.7301 17.3868C12.8234 17.2934 12.8951 17.1807 12.94 17.0566C12.9844 16.935 13.0048 16.806 13 16.6766C13.0008 16.545 12.9755 16.4146 12.9258 16.2927C12.876 16.1709 12.8027 16.0601 12.71 15.9666C12.617 15.8729 12.5064 15.7985 12.3846 15.7477C12.2627 15.697 12.132 15.6708 12 15.6708C11.868 15.6708 11.7373 15.697 11.6154 15.7477C11.4936 15.7985 11.383 15.8729 11.29 15.9666ZM12 2.67664C10.0222 2.67664 8.08879 3.26313 6.4443 4.36194C4.79981 5.46075 3.51809 7.02254 2.76121 8.8498C2.00433 10.6771 1.8063 12.6877 2.19215 14.6275C2.578 16.5673 3.53041 18.3492 4.92894 19.7477C6.32746 21.1462 8.10929 22.0986 10.0491 22.4845C11.9889 22.8703 13.9996 22.6723 15.8268 21.9154C17.6541 21.1586 19.2159 19.8768 20.3147 18.2323C21.4135 16.5878 22 14.6544 22 12.6766C22 11.3634 21.7413 10.0631 21.2388 8.8498C20.7363 7.63655 19.9997 6.53415 19.0711 5.60557C18.1425 4.67698 17.0401 3.94039 15.8268 3.43784C14.6136 2.93529 13.3132 2.67664 12 2.67664ZM12 20.6766C10.4178 20.6766 8.87104 20.2074 7.55544 19.3284C6.23985 18.4493 5.21447 17.1999 4.60897 15.7381C4.00347 14.2763 3.84504 12.6678 4.15372 11.1159C4.4624 9.56407 5.22433 8.1386 6.34315 7.01978C7.46197 5.90096 8.88743 5.13904 10.4393 4.83035C11.9911 4.52167 13.5997 4.6801 15.0615 5.2856C16.5233 5.8911 17.7727 6.91648 18.6518 8.23207C19.5308 9.54767 20 11.0944 20 12.6766C20 14.7984 19.1572 16.8332 17.6569 18.3335C16.1566 19.8338 14.1217 20.6766 12 20.6766ZM12 7.67664C11.4731 7.6763 10.9553 7.81476 10.4989 8.07808C10.0425 8.3414 9.66347 8.7203 9.4 9.17664C9.32765 9.29045 9.27907 9.41773 9.25718 9.55081C9.23529 9.68389 9.24055 9.82003 9.27263 9.95102C9.30472 10.082 9.36297 10.2052 9.44389 10.3131C9.52481 10.421 9.62671 10.5114 9.74348 10.5789C9.86024 10.6464 9.98945 10.6896 10.1233 10.7058C10.2572 10.7221 10.393 10.7111 10.5225 10.6735C10.6521 10.6359 10.7727 10.5725 10.8771 10.4872C10.9814 10.4018 11.0675 10.2961 11.13 10.1766C11.2181 10.024 11.345 9.89742 11.4978 9.80961C11.6505 9.72181 11.8238 9.67594 12 9.67664C12.2652 9.67664 12.5196 9.78199 12.7071 9.96953C12.8946 10.1571 13 10.4114 13 10.6766C13 10.9419 12.8946 11.1962 12.7071 11.3837C12.5196 11.5713 12.2652 11.6766 12 11.6766C11.7348 11.6766 11.4804 11.782 11.2929 11.9695C11.1054 12.1571 11 12.4114 11 12.6766V13.6766C11 13.9419 11.1054 14.1962 11.2929 14.3837C11.4804 14.5713 11.7348 14.6766 12 14.6766C12.2652 14.6766 12.5196 14.5713 12.7071 14.3837C12.8946 14.1962 13 13.9419 13 13.6766V13.4966C13.6614 13.2567 14.2174 12.7919 14.5708 12.1835C14.9242 11.5751 15.0525 10.8619 14.9334 10.1685C14.8143 9.47512 14.4552 8.84565 13.919 8.39015C13.3828 7.93465 12.7035 7.68209 12 7.67664Z" fill="#999999"/>
</svg>
