<svg width="24" height="24" viewBox="0 0 24 24" fill="none" xmlns="http://www.w3.org/2000/svg">
<path d="M14.83 11.2897L10.59 7.0497C10.497 6.95598 10.3864 6.88158 10.2646 6.83081C10.1427 6.78004 10.012 6.75391 9.88 6.75391C9.74799 6.75391 9.61729 6.78004 9.49543 6.83081C9.37357 6.88158 9.26297 6.95598 9.17 7.0497C8.98375 7.23707 8.87921 7.49052 8.87921 7.7547C8.87921 8.01889 8.98375 8.27234 9.17 8.4597L12.71 11.9997L9.17 15.5397C8.98375 15.7271 8.87921 15.9805 8.87921 16.2447C8.87921 16.5089 8.98375 16.7623 9.17 16.9497C9.26344 17.0424 9.37426 17.1157 9.4961 17.1655C9.61794 17.2152 9.7484 17.2405 9.88 17.2397C10.0116 17.2405 10.1421 17.2152 10.2639 17.1655C10.3857 17.1157 10.4966 17.0424 10.59 16.9497L14.83 12.7097C14.9237 12.6167 14.9981 12.5061 15.0489 12.3843C15.0997 12.2624 15.1258 12.1317 15.1258 11.9997C15.1258 11.8677 15.0997 11.737 15.0489 11.6151C14.9981 11.4933 14.9237 11.3827 14.83 11.2897Z" fill="#999999"/>
</svg>
