<svg width="33" height="32" viewBox="0 0 33 32" fill="none" xmlns="http://www.w3.org/2000/svg">
<path d="M28.9267 12.7332L26.4067 11.8932L27.5933 9.51984C27.7136 9.27142 27.7539 8.99179 27.7085 8.71954C27.6631 8.44728 27.5344 8.19582 27.34 7.99984L24.5 5.15984C24.303 4.96262 24.0491 4.83212 23.7741 4.78668C23.499 4.74123 23.2166 4.78314 22.9667 4.90651L20.5933 6.09317L19.7533 3.57318C19.6646 3.3105 19.4962 3.08201 19.2716 2.91951C19.0469 2.757 18.7772 2.66857 18.5 2.66651H14.5C14.2205 2.66579 13.9478 2.75293 13.7205 2.91563C13.4932 3.07833 13.3228 3.30835 13.2333 3.57318L12.3933 6.09317L10.02 4.90651C9.77157 4.78621 9.49195 4.74598 9.21969 4.79136C8.94743 4.83673 8.69597 4.96548 8.49999 5.15984L5.65999 7.99984C5.46278 8.19686 5.33227 8.45074 5.28683 8.72578C5.24139 9.00082 5.2833 9.28319 5.40666 9.53317L6.59333 11.9065L4.07333 12.7465C3.81065 12.8352 3.58216 13.0036 3.41966 13.2282C3.25715 13.4529 3.16872 13.7226 3.16666 13.9998V17.9998C3.16594 18.2794 3.25309 18.552 3.41578 18.7793C3.57848 19.0066 3.8085 19.1771 4.07333 19.2665L6.59333 20.1065L5.40666 22.4798C5.28637 22.7283 5.24613 23.0079 5.29151 23.2801C5.33688 23.5524 5.46563 23.8039 5.65999 23.9998L8.49999 26.8398C8.69701 27.0371 8.95089 27.1676 9.22593 27.213C9.50098 27.2584 9.78334 27.2165 10.0333 27.0932L12.4067 25.9065L13.2467 28.4265C13.3361 28.6913 13.5065 28.9214 13.7338 29.0841C13.9611 29.2467 14.2338 29.3339 14.5133 29.3332H18.5133C18.7929 29.3339 19.0655 29.2467 19.2928 29.0841C19.5201 28.9214 19.6905 28.6913 19.78 28.4265L20.62 25.9065L22.9933 27.0932C23.2402 27.2104 23.5171 27.249 23.7865 27.2037C24.056 27.1584 24.3051 27.0314 24.5 26.8398L27.34 23.9998C27.5372 23.8028 27.6677 23.5489 27.7132 23.2739C27.7586 22.9989 27.7167 22.7165 27.5933 22.4665L26.4067 20.0932L28.9267 19.2532C29.1893 19.1645 29.4178 18.9961 29.5803 18.7714C29.7428 18.5468 29.8313 18.2771 29.8333 17.9998V13.9998C29.834 13.7203 29.7469 13.4476 29.5842 13.2203C29.4215 12.993 29.1915 12.8226 28.9267 12.7332ZM27.1667 17.0398L25.5667 17.5732C25.1987 17.6925 24.8612 17.8905 24.5774 18.1533C24.2936 18.4161 24.0704 18.7376 23.9233 19.0953C23.7761 19.453 23.7086 19.8384 23.7253 20.2249C23.742 20.6113 23.8425 20.9895 24.02 21.3332L24.78 22.8532L23.3133 24.3198L21.8333 23.5198C21.4914 23.3495 21.1169 23.2546 20.7351 23.2416C20.3533 23.2285 19.9732 23.2977 19.6204 23.4444C19.2677 23.591 18.9506 23.8118 18.6906 24.0916C18.4305 24.3715 18.2337 24.704 18.1133 25.0665L17.58 26.6665H15.46L14.9267 25.0665C14.8073 24.6986 14.6094 24.361 14.3465 24.0772C14.0837 23.7935 13.7623 23.5703 13.4046 23.4231C13.0468 23.276 12.6614 23.2084 12.275 23.2251C11.8885 23.2418 11.5103 23.3424 11.1667 23.5198L9.64666 24.2798L8.17999 22.8132L8.97999 21.3332C9.15745 20.9895 9.25802 20.6113 9.27472 20.2249C9.29142 19.8384 9.22386 19.453 9.07671 19.0953C8.92957 18.7376 8.70636 18.4161 8.42259 18.1533C8.13881 17.8905 7.80125 17.6925 7.43333 17.5732L5.83333 17.0398V14.9598L7.43333 14.4265C7.80125 14.3072 8.13881 14.1092 8.42259 13.8464C8.70636 13.5835 8.92957 13.2621 9.07671 12.9044C9.22386 12.5467 9.29142 12.1612 9.27472 11.7748C9.25802 11.3884 9.15745 11.0102 8.97999 10.6665L8.21999 9.18651L9.68666 7.71984L11.1667 8.47984C11.5103 8.6573 11.8885 8.75787 12.275 8.77457C12.6614 8.79127 13.0468 8.7237 13.4046 8.57656C13.7623 8.42941 14.0837 8.20621 14.3465 7.92243C14.6094 7.63866 14.8073 7.3011 14.9267 6.93317L15.46 5.33317H17.54L18.0733 6.93317C18.1927 7.3011 18.3906 7.63866 18.6535 7.92243C18.9163 8.20621 19.2377 8.42941 19.5954 8.57656C19.9531 8.7237 20.3386 8.79127 20.725 8.77457C21.1115 8.75787 21.4896 8.6573 21.8333 8.47984L23.3533 7.71984L24.82 9.18651L24.02 10.6665C23.8496 11.0084 23.7547 11.383 23.7417 11.7648C23.7287 12.1465 23.7979 12.5267 23.9445 12.8794C24.0912 13.2322 24.3119 13.5493 24.5918 13.8093C24.8716 14.0693 25.2041 14.2661 25.5667 14.3865L27.1667 14.9198V17.0398ZM16.5 10.6665C15.4452 10.6665 14.414 10.9793 13.537 11.5653C12.6599 12.1514 11.9763 12.9843 11.5726 13.9589C11.169 14.9334 11.0634 16.0058 11.2691 17.0403C11.4749 18.0749 11.9829 19.0252 12.7288 19.7711C13.4746 20.517 14.4249 21.0249 15.4595 21.2307C16.4941 21.4365 17.5664 21.3309 18.541 20.9272C19.5155 20.5235 20.3485 19.8399 20.9345 18.9629C21.5205 18.0858 21.8333 17.0547 21.8333 15.9998C21.8333 14.5854 21.2714 13.2288 20.2712 12.2286C19.271 11.2284 17.9145 10.6665 16.5 10.6665ZM16.5 18.6665C15.9726 18.6665 15.457 18.5101 15.0185 18.2171C14.5799 17.9241 14.2381 17.5076 14.0363 17.0203C13.8345 16.5331 13.7817 15.9969 13.8846 15.4796C13.9875 14.9623 14.2414 14.4872 14.6144 14.1142C14.9873 13.7413 15.4625 13.4873 15.9798 13.3844C16.497 13.2815 17.0332 13.3343 17.5205 13.5362C18.0078 13.738 18.4242 14.0798 18.7172 14.5183C19.0103 14.9569 19.1667 15.4724 19.1667 15.9998C19.1667 16.7071 18.8857 17.3854 18.3856 17.8855C17.8855 18.3856 17.2072 18.6665 16.5 18.6665Z" fill="white"/>
</svg>
